<?xml version="1.0" standalone="no"?>
<!DOCTYPE svg PUBLIC "-//W3C//DTD SVG 20010904//EN"
 "http://www.w3.org/TR/2001/REC-SVG-20010904/DTD/svg10.dtd">
<svg version="1.0" xmlns="http://www.w3.org/2000/svg"
 width="500.000000pt" height="500.000000pt" viewBox="0 0 500.000000 500.000000"
 preserveAspectRatio="xMidYMid meet">

<g transform="translate(0.000000,500.000000) scale(0.100000,-0.100000)"
fill="#000000" stroke="none">
<path d="M2471 4747 c-97 -301 -358 -723 -744 -1205 -63 -79 -135 -178 -160
-221 -101 -170 -150 -343 -150 -536 -1 -285 94 -532 285 -740 362 -395 921
-472 1376 -189 96 60 245 203 311 299 225 325 261 723 97 1071 -67 141 -116
204 -315 409 -103 105 -217 228 -254 275 -205 255 -340 529 -396 804 -11 54
-21 100 -23 102 -2 1 -14 -29 -27 -69z m-57 -1204 c2 -10 26 -268 53 -573 l48
-555 43 345 c26 215 48 350 56 358 29 30 42 1 96 -219 l55 -221 27 193 c16
107 30 200 33 207 3 7 15 12 27 10 21 -3 27 -19 65 -183 23 -99 42 -183 42
-187 1 -4 72 -9 159 -10 l157 -3 0 -25 0 -25 -177 -3 c-205 -3 -186 -14 -213
118 -10 47 -21 91 -25 98 -3 7 -17 -65 -29 -160 -13 -95 -28 -183 -32 -195
-12 -33 -47 -30 -56 5 -93 370 -101 396 -107 372 -3 -14 -26 -189 -51 -390
-25 -201 -47 -371 -50 -377 -5 -14 -41 -18 -49 -5 -3 5 -25 244 -50 533 -25
288 -49 547 -52 574 -6 43 -16 -1 -75 -345 -37 -217 -68 -396 -68 -397 -1 -2
-12 -3 -26 -3 -27 0 -22 -12 -75 200 -43 178 -40 174 -80 78 l-35 -83 -146 -3
c-129 -2 -147 -1 -153 14 -13 35 11 43 137 46 l120 3 50 118 c44 102 53 117
73 117 17 0 25 -7 31 -27 63 -253 71 -277 77 -253 3 14 37 211 75 438 39 227
73 417 76 422 10 16 43 11 49 -7z"/>
<path d="M2920 865 l0 -395 75 0 75 0 0 395 0 395 -75 0 -75 0 0 -395z"/>
<path d="M4630 1105 c0 -85 -3 -155 -7 -155 -3 0 -30 12 -60 26 -137 67 -252
-20 -269 -202 -12 -130 21 -237 87 -287 58 -43 161 -39 212 9 34 32 57 31 57
-1 0 -24 2 -25 66 -25 l67 0 -7 92 c-3 50 -6 228 -6 395 l0 303 -70 0 -70 0 0
-155z m-24 -256 c22 -21 24 -30 24 -125 0 -99 -1 -103 -26 -123 -19 -15 -41
-21 -74 -21 -70 0 -84 20 -89 132 -3 98 8 139 42 157 32 16 95 6 123 -20z"/>
<path d="M386 1231 c-62 -26 -100 -62 -131 -126 -61 -125 -59 -390 3 -511 48
-93 134 -138 262 -137 90 1 143 15 217 59 l43 25 0 169 0 170 -125 0 -125 0 0
-65 0 -65 50 0 50 0 0 -73 0 -74 -39 -11 c-95 -29 -172 -6 -201 60 -24 57 -35
201 -21 305 17 136 42 163 150 163 76 0 101 -24 110 -107 l6 -58 75 0 75 0 -4
54 c-7 107 -45 172 -126 213 -59 31 -203 35 -269 9z"/>
<path d="M2290 855 l0 -385 163 0 c173 0 214 7 268 43 101 68 112 269 18 324
-36 21 -36 28 0 63 38 38 54 103 41 169 -12 64 -21 82 -60 115 -52 43 -117 56
-282 56 l-148 0 0 -385z m321 226 c28 -34 25 -96 -6 -126 -21 -22 -33 -25 -95
-25 l-70 0 0 91 0 91 76 -4 c65 -3 79 -7 95 -27z m21 -310 c20 -26 25 -109 8
-141 -13 -24 -69 -40 -142 -40 l-58 0 0 106 0 107 87 -5 c74 -4 89 -8 105 -27z"/>
<path d="M900 1155 l0 -75 75 0 75 0 0 75 0 75 -75 0 -75 0 0 -75z"/>
<path d="M1868 986 c-86 -31 -140 -94 -159 -184 -20 -99 9 -229 64 -281 67
-62 209 -83 298 -44 41 18 109 82 109 103 0 4 3 15 6 24 5 14 -4 16 -59 16
-59 0 -68 -3 -95 -30 -25 -25 -39 -30 -77 -30 -38 0 -52 5 -76 29 -19 20 -29
40 -29 60 l0 31 171 0 172 0 -6 71 c-7 85 -42 164 -87 197 -67 50 -158 64
-232 38z m136 -118 c13 -13 27 -38 31 -55 l7 -33 -96 0 c-59 0 -96 4 -96 10 0
23 29 79 47 89 31 18 80 13 107 -11z"/>
<path d="M3326 988 c-23 -6 -59 -30 -86 -57 -57 -55 -73 -102 -72 -212 1 -168
85 -260 239 -261 74 0 156 34 190 80 71 96 70 283 -2 378 -14 19 -45 44 -68
55 -48 25 -144 33 -201 17z m129 -124 c30 -12 45 -60 45 -144 0 -77 -2 -83
-29 -111 -53 -53 -131 -33 -151 39 -21 76 -9 164 27 204 16 18 75 24 108 12z"/>
<path d="M3886 988 c-23 -6 -59 -30 -86 -57 -57 -55 -73 -102 -72 -212 1 -168
85 -260 239 -261 74 0 156 34 190 80 71 96 70 283 -2 378 -14 19 -45 44 -68
55 -48 25 -144 33 -201 17z m129 -124 c30 -12 45 -60 45 -144 0 -77 -2 -83
-29 -111 -53 -53 -131 -33 -151 39 -21 76 -9 164 27 204 16 18 75 24 108 12z"/>
<path d="M907 983 c-4 -3 -7 -120 -7 -260 l0 -253 75 0 75 0 0 260 0 260 -68
0 c-38 0 -72 -3 -75 -7z"/>
<path d="M1133 976 c3 -8 36 -118 72 -243 36 -125 68 -236 71 -246 5 -16 17
-17 111 -15 l106 3 73 250 c41 138 74 254 74 258 0 4 -32 7 -72 5 l-72 -3 -47
-189 c-44 -176 -60 -220 -71 -199 -3 4 -27 95 -53 201 l-47 192 -75 0 c-62 0
-74 -3 -70 -14z"/>
</g>
</svg>
