<?xml version="1.0" standalone="no"?>
<!DOCTYPE svg PUBLIC "-//W3C//DTD SVG 20010904//EN"
 "http://www.w3.org/TR/2001/REC-SVG-20010904/DTD/svg10.dtd">
<svg version="1.0" xmlns="http://www.w3.org/2000/svg"
 width="360.000000pt" height="360.000000pt" viewBox="0 0 360.000000 360.000000"
 preserveAspectRatio="xMidYMid meet">

<g transform="translate(0.000000,360.000000) scale(0.100000,-0.100000)"
fill="#000000" stroke="none">
<path d="M1728 2950 c-52 -28 -81 -73 -86 -135 -5 -59 10 -94 57 -140 26 -24
41 -30 94 -33 53 -3 67 0 97 20 59 40 82 84 78 149 -5 68 -35 114 -92 140 -52
24 -101 23 -148 -1z"/>
<path d="M1505 2631 c-190 -68 -358 -210 -460 -390 -36 -64 -87 -198 -98 -259
-7 -35 -6 -36 54 -46 l36 -6 17 67 c21 89 81 212 141 292 83 109 233 216 353
252 23 7 42 14 42 16 0 17 -24 93 -29 92 -3 0 -29 -8 -56 -18z"/>
<path d="M2042 2611 c-7 -21 -12 -43 -12 -48 0 -6 27 -20 59 -32 63 -23 183
-98 243 -153 102 -93 192 -247 224 -384 l18 -76 46 7 c25 4 47 8 48 10 2 2 -6
41 -17 87 -69 274 -269 500 -533 604 -34 13 -62 24 -63 24 -1 0 -7 -17 -13
-39z"/>
<path d="M1745 2598 c-16 -6 -43 -22 -58 -37 -53 -49 -60 -74 -65 -233 -2 -81
-2 -159 2 -173 l6 -25 178 2 177 3 0 160 c0 88 -3 172 -8 188 -4 15 -24 45
-43 67 -50 55 -119 72 -189 48z"/>
<path d="M1000 1869 c-62 -26 -100 -85 -100 -157 0 -91 72 -162 165 -162 88 0
154 60 163 148 9 97 -55 173 -151 179 -29 1 -63 -2 -77 -8z"/>
<path d="M2462 1864 c-18 -10 -45 -33 -60 -52 -36 -47 -39 -145 -6 -189 37
-49 82 -73 139 -73 164 0 227 204 93 303 -37 28 -122 33 -166 11z"/>
<path d="M982 1499 c-85 -42 -104 -101 -100 -309 l3 -145 178 -3 177 -2 0 175
c0 190 -4 207 -57 257 -55 52 -129 62 -201 27z"/>
<path d="M2470 1509 c-32 -13 -78 -57 -96 -91 -10 -20 -14 -71 -14 -203 l0
-175 178 2 177 3 0 170 c0 195 -9 228 -77 273 -44 28 -126 39 -168 21z"/>
<path d="M1332 1134 c-29 -45 -26 -49 81 -102 141 -70 218 -87 392 -86 175 0
231 12 370 79 127 61 122 55 91 102 l-26 39 -88 -43 c-118 -59 -220 -83 -346
-83 -148 0 -290 38 -398 107 -21 12 -41 23 -45 23 -5 0 -18 -16 -31 -36z"/>
</g>
</svg>
