<?xml version="1.0" standalone="no"?>
<!DOCTYPE svg PUBLIC "-//W3C//DTD SVG 20010904//EN"
 "http://www.w3.org/TR/2001/REC-SVG-20010904/DTD/svg10.dtd">
<svg version="1.0" xmlns="http://www.w3.org/2000/svg"
 width="752.000000pt" height="752.000000pt" viewBox="0 0 752.000000 752.000000"
 preserveAspectRatio="xMidYMid meet">

<g transform="translate(0.000000,752.000000) scale(0.100000,-0.100000)"
fill="#000000" stroke="none">
<path d="M1991 6119 c-146 -25 -269 -88 -382 -199 -224 -221 -279 -536 -142
-817 143 -293 490 -454 807 -373 196 50 370 190 459 370 55 111 77 202 77 320
0 119 -22 209 -76 319 -78 158 -225 289 -391 346 -121 42 -235 53 -352 34z
m202 -482 c90 -38 141 -117 141 -217 0 -136 -94 -230 -229 -230 -135 0 -229
94 -229 230 0 98 50 178 134 214 44 19 140 20 183 3z"/>
<path d="M3641 6119 c-265 -47 -466 -221 -562 -489 l-24 -65 -3 -945 c-3
-1069 -6 -1019 76 -1183 37 -74 62 -108 126 -172 120 -118 237 -179 396 -204
89 -15 1781 -15 1870 0 157 25 277 86 390 200 88 88 150 195 180 315 22 86 26
207 9 265 -36 117 -180 188 -295 144 -62 -24 -119 -77 -138 -128 -9 -23 -20
-73 -26 -112 -14 -106 -76 -180 -171 -205 -25 -7 -341 -9 -911 -8 -968 3 -897
-2 -967 69 -71 70 -66 -4 -66 989 l0 895 22 42 c43 80 95 110 233 132 79 13
133 48 173 112 72 118 26 275 -100 334 -44 21 -138 27 -212 14z"/>
<path d="M5225 6107 c-53 -14 -136 -98 -153 -153 -8 -26 -12 -112 -12 -232 l0
-191 -212 -3 c-195 -3 -216 -5 -253 -25 -180 -96 -160 -360 32 -429 27 -9 97
-13 236 -14 l197 0 0 -197 c1 -214 6 -245 55 -309 36 -47 115 -84 181 -84 62
0 144 38 179 84 48 63 55 103 55 312 l0 194 198 0 c138 1 208 5 235 14 95 34
152 116 151 221 0 70 -20 117 -71 168 -58 58 -100 67 -320 67 l-193 0 0 196
c0 231 -6 260 -70 325 -63 65 -135 83 -235 56z"/>
<path d="M1922 2790 c-121 -32 -226 -93 -317 -185 -89 -90 -135 -160 -170
-262 -67 -192 -55 -373 38 -563 33 -69 58 -102 132 -175 73 -74 106 -99 175
-132 118 -58 194 -76 320 -77 128 -1 187 13 310 71 82 39 107 58 185 137 73
73 99 108 132 176 60 121 77 194 77 325 0 127 -17 202 -71 312 -90 185 -281
336 -478 378 -98 20 -243 18 -333 -5z m286 -474 c74 -38 132 -131 132 -211 0
-120 -114 -235 -234 -235 -80 0 -162 48 -204 119 -22 38 -27 58 -27 116 0 58
5 78 28 117 47 81 124 121 218 114 31 -2 70 -11 87 -20z"/>
<path d="M3665 2803 c-241 -35 -448 -189 -551 -410 -46 -97 -64 -180 -64 -294
0 -193 68 -358 205 -494 120 -119 238 -180 400 -205 48 -7 360 -10 975 -7
1006 3 947 -1 1092 72 146 73 247 175 318 320 56 112 74 190 74 315 0 121 -18
200 -68 305 -70 148 -173 252 -321 325 -159 79 -91 74 -1115 76 -503 1 -928
-1 -945 -3z m1806 -473 c52 -15 99 -49 134 -99 28 -39 30 -49 30 -126 0 -77
-2 -87 -30 -126 -35 -50 -82 -84 -134 -99 -49 -13 -1733 -14 -1781 0 -77 21
-152 104 -165 181 -19 114 46 227 154 265 46 17 1734 20 1792 4z"/>
</g>
</svg>
