<?xml version="1.0" standalone="no"?>
<!DOCTYPE svg PUBLIC "-//W3C//DTD SVG 20010904//EN"
 "http://www.w3.org/TR/2001/REC-SVG-20010904/DTD/svg10.dtd">
<svg version="1.0" xmlns="http://www.w3.org/2000/svg"
 width="241.000000pt" height="195.000000pt" viewBox="0 0 241.000000 195.000000"
 preserveAspectRatio="xMidYMid meet">

<g transform="translate(0.000000,195.000000) scale(0.100000,-0.100000)"
fill="#000000" stroke="none">
<path d="M1080 1900 c0 -5 -22 -10 -50 -10 -27 0 -50 -4 -50 -9 0 -5 -12 -11
-27 -14 -16 -3 -38 -15 -50 -26 -12 -12 -26 -21 -31 -21 -5 0 -20 -16 -33 -35
-13 -19 -27 -35 -31 -35 -5 0 -8 -7 -8 -15 0 -8 -3 -15 -8 -15 -12 0 -34 -71
-39 -127 -3 -29 -9 -53 -14 -53 -5 0 -9 -16 -9 -35 0 -19 5 -35 10 -35 6 0 10
-20 10 -45 0 -25 4 -45 9 -45 16 0 20 -41 5 -47 -30 -11 -12 -163 20 -163 15
0 36 -29 36 -49 0 -11 7 -26 15 -35 8 -8 15 -21 15 -29 0 -8 20 -36 45 -63
l45 -47 0 -92 c0 -88 -1 -93 -26 -111 -14 -10 -32 -23 -38 -29 -25 -21 -57
-35 -81 -35 -14 0 -25 -3 -25 -7 0 -5 -28 -16 -63 -27 -111 -33 -132 -40 -141
-48 -6 -4 -18 -8 -28 -8 -10 0 -18 -4 -18 -9 0 -5 -10 -13 -22 -17 -18 -5 -43
-24 -80 -62 -43 -42 -58 -64 -58 -82 0 -11 -4 -20 -9 -20 -5 0 -13 -25 -16
-55 -4 -30 -11 -58 -16 -61 -5 -3 -9 -14 -9 -25 0 -18 11 -19 405 -19 l405 0
0 25 c0 14 -4 25 -10 25 -5 0 -10 14 -10 31 0 17 -7 37 -15 45 -12 12 -15 44
-15 154 0 110 3 142 15 154 8 8 15 28 15 45 0 17 5 31 10 31 6 0 10 11 10 25
0 14 5 25 10 25 6 0 10 8 10 18 0 9 12 28 25 41 14 13 25 29 25 36 0 7 16 26
35 42 19 17 35 35 35 42 0 6 4 11 8 11 5 0 17 8 28 18 10 10 34 27 52 37 17
11 32 23 32 27 0 4 9 8 20 8 11 0 20 5 20 10 0 6 11 10 25 10 20 0 25 5 25 25
0 14 5 25 10 25 6 0 22 11 36 25 20 20 25 35 25 86 1 41 -3 64 -12 70 -10 6
-11 13 -2 31 15 29 25 91 24 148 0 70 -12 150 -22 150 -5 0 -9 8 -9 19 0 10
-7 24 -15 31 -8 7 -15 17 -15 22 0 14 -26 38 -42 38 -7 0 -22 7 -32 15 -11 8
-28 15 -38 15 -10 0 -34 16 -54 35 -19 19 -41 35 -49 35 -8 0 -15 5 -15 10 0
6 -16 10 -35 10 -19 0 -35 5 -35 10 0 6 -25 10 -55 10 -30 0 -55 -4 -55 -10z"/>
<path d="M1650 990 c-8 -5 -32 -10 -53 -10 -20 0 -45 -4 -55 -9 -9 -5 -34 -17
-54 -27 -21 -10 -38 -22 -38 -26 0 -5 -7 -8 -15 -8 -8 0 -15 -4 -15 -10 0 -5
-9 -10 -20 -10 -11 0 -20 -5 -20 -10 0 -6 -10 -22 -22 -35 -38 -40 -48 -54
-48 -65 0 -5 -4 -10 -10 -10 -5 0 -10 -9 -10 -20 0 -11 -4 -20 -9 -20 -5 0
-12 -11 -15 -25 -4 -14 -11 -25 -16 -25 -6 0 -10 -25 -10 -55 0 -30 -4 -55
-10 -55 -5 0 -10 -22 -10 -50 0 -27 5 -50 10 -50 6 0 10 -25 10 -55 0 -30 4
-55 9 -55 5 0 12 -11 15 -25 4 -14 11 -25 16 -25 6 0 10 -9 10 -20 0 -12 10
-32 23 -45 33 -36 47 -53 47 -60 0 -10 27 -35 38 -35 5 0 21 -11 36 -25 15
-14 36 -25 47 -25 10 0 19 -4 19 -10 0 -5 9 -10 19 -10 11 0 22 -4 25 -9 3 -5
31 -12 61 -16 30 -3 55 -11 55 -16 0 -5 20 -9 45 -9 25 0 45 4 45 9 0 6 21 13
48 16 26 3 55 10 64 16 10 5 25 9 33 9 8 0 15 5 15 10 0 6 11 10 25 10 14 0
25 6 25 13 0 6 15 19 33 26 32 15 57 34 57 46 0 7 14 24 48 60 12 13 22 33 22
45 0 11 5 20 10 20 6 0 10 9 10 20 0 11 7 23 15 26 11 5 15 21 15 60 0 30 5
54 10 54 6 0 10 23 10 50 0 28 -4 50 -10 50 -5 0 -10 24 -10 54 0 39 -4 55
-15 60 -8 3 -15 15 -15 26 0 11 -4 20 -10 20 -5 0 -10 9 -10 20 0 11 -4 20
-10 20 -5 0 -10 5 -10 10 0 11 -10 25 -47 65 -13 13 -23 29 -23 35 0 5 -9 10
-20 10 -11 0 -20 5 -20 10 0 6 -7 10 -15 10 -8 0 -15 4 -15 10 0 5 -11 12 -25
16 -14 3 -25 10 -25 15 0 5 -8 9 -18 9 -10 0 -22 4 -27 9 -9 8 -40 14 -155 27
-25 2 -52 0 -60 -6z m320 -277 c30 -26 27 -85 -5 -109 -14 -10 -25 -23 -25
-27 0 -10 -26 -37 -35 -37 -8 0 -35 -27 -35 -35 0 -8 -27 -35 -35 -35 -8 0
-35 -27 -35 -35 0 -8 -27 -35 -35 -35 -8 0 -35 -27 -35 -35 0 -10 -28 -35 -39
-35 -6 0 -11 -4 -11 -10 0 -5 -20 -10 -45 -10 -25 0 -45 5 -45 10 0 6 -5 10
-11 10 -11 0 -39 25 -39 35 0 8 -27 35 -35 35 -8 0 -35 27 -35 35 0 10 -28 35
-39 35 -6 0 -11 19 -11 43 0 53 24 77 78 77 34 0 92 -34 92 -54 0 -13 28 -36
45 -36 16 0 45 22 45 35 0 10 48 55 60 55 5 0 10 5 10 10 0 12 45 60 55 60 8
0 35 27 35 35 0 35 95 48 130 18z"/>
</g>
</svg>
